<svg xmlns="http://www.w3.org/2000/svg" viewBox="0 0 1254 1254" width="1254" height="1254" role="img" aria-label="L8AI logo">
  <rect width="100%" height="100%" fill="#ffffff"/>
  <g id="graphite" fill="#15202a">
<path d="M 623.599 274.513 C 568.784 283.433, 524.690 321.858, 512.104 371.673 C 501.575 413.348, 516.077 458.269, 548.364 483.989 C 554.796 489.112, 555.262 490.823, 550.924 493.386 C 544.493 497.185, 528.182 510.991, 520.500 519.139 C 468.017 574.801, 481.712 657.577, 549.519 694.539 C 596.017 719.885, 658.218 715.122, 701.213 682.924 C 745.465 649.783, 762.406 591.794, 741.907 543.622 C 737.855 534.099, 727.498 518.816, 720.328 511.778 L 714.499 506.057 685.168 525.524 C 669.036 536.232, 655.094 545.408, 654.186 545.916 C 652.801 546.691, 653.589 547.805, 659.088 552.843 C 670.534 563.332, 675.525 575.752, 674.775 591.887 C 674.233 603.561, 671.830 610.803, 665.340 620.322 C 645.049 650.083, 599.990 654.590, 575.842 629.274 C 554.051 606.428, 558.147 570.674, 584.815 550.950 C 596.442 542.350, 613.689 537.316, 627 538.637 L 632.500 539.183 665.960 516.485 C 708.014 487.957, 716.107 481.942, 728.125 470.280 C 753.302 445.850, 766.068 417.153, 766.286 384.500 C 766.642 331.378, 731.186 288.711, 676 275.851 C 664.523 273.177, 636.247 272.455, 623.599 274.513 M 464 298.198 C 453.825 304.260, 430.875 317.770, 413 328.219 C 368.727 354.100, 366.567 355.473, 365.049 358.709 C 364.330 360.244, 359.337 384.900, 353.954 413.500 C 342.782 472.863, 336.629 505.502, 320.399 591.500 C 299.493 702.268, 300.122 698.549, 301.621 702.455 C 303.405 707.103, 300.706 707, 420.671 707 L 533.442 707 524.471 701.187 C 492.579 680.520, 472.548 649.130, 467.559 612 L 466.955 607.500 447.727 607.816 C 437.152 607.991, 425.660 607.839, 422.189 607.480 C 416.003 606.841, 415.890 606.775, 416.417 604.164 C 416.713 602.699, 420.532 584.850, 424.903 564.500 C 447.113 461.096, 463.836 382.271, 482.344 293.750 C 483.121 290.038, 483.473 287.039, 483.128 287.087 C 482.783 287.135, 474.175 292.135, 464 298.198 M 626 341.507 C 608.123 345.865, 594.980 356.302, 586.972 372.500 C 573.089 400.580, 585.827 431.859, 615.327 442.128 C 622.201 444.521, 625.089 444.973, 633.500 444.972 C 652.266 444.969, 663.553 440.480, 676.086 428.034 C 692.986 411.250, 697.316 388.833, 687.607 368.387 C 677.412 346.920, 651.025 335.407, 626 341.507 M 804 770.892 C 799.266 772.419, 793.494 775.823, 790.832 778.658 C 789.364 780.221, 777.718 800.625, 764.950 824 C 752.183 847.375, 733.246 881.759, 722.868 900.409 C 712.491 919.059, 704 934.471, 704 934.659 C 704 934.846, 714.267 935, 726.815 935 L 749.630 935 751.392 931.250 C 752.361 929.188, 756.434 921.425, 760.442 914 C 764.450 906.575, 777.981 881.150, 790.510 857.500 C 803.039 833.850, 814.246 812.700, 815.415 810.500 C 819.490 802.826, 819.904 803.347, 837.694 838.500 C 846.600 856.100, 853.913 871.063, 853.944 871.750 C 853.987 872.712, 849.192 873, 833.146 873 L 812.292 873 804.225 888.250 L 796.159 903.500 833.090 903.762 L 870.020 904.024 877.745 919.512 L 885.470 935 909.235 935 C 922.306 935, 933 934.878, 933 934.728 C 933 934.579, 920.143 909.941, 904.430 879.978 C 888.716 850.015, 870.933 816.031, 864.913 804.457 C 852.577 780.745, 849.950 777.060, 842.649 773.232 C 837.772 770.675, 836.681 770.520, 822 770.309 C 813.475 770.186, 805.375 770.449, 804 770.892 M 966 852.500 L 966 935 986.500 935 L 1007 935 1007 852.500 L 1007 770 986.500 770 L 966 770 966 852.500 M 505.043 772.122 C 502.041 772.629, 497.296 774.092, 494.497 775.373 C 479.172 782.389, 474.298 794.547, 475.204 823.500 C 475.672 838.460, 477.231 844.299, 481.855 848.405 C 484.708 850.939, 484.592 851.542, 480.565 855.077 C 474.353 860.531, 473.500 864.639, 473.500 889.102 L 473.500 910.704 477.006 917.590 C 479.823 923.123, 481.591 925.210, 486.006 928.218 C 496.234 935.187, 494.955 935.096, 578.144 934.773 C 662.165 934.447, 657.458 934.889, 666.858 926.437 C 675.708 918.481, 676.500 915.363, 676.500 888.500 C 676.500 866.862, 676.373 865.263, 674.347 861.500 C 673.163 859.300, 671.026 856.409, 669.597 855.076 C 666.334 852.030, 666.318 849.990, 669.531 846.971 C 674.135 842.646, 675.221 836.038, 674.838 814.681 C 674.510 796.391, 674.371 795.237, 671.845 789.845 C 668.438 782.569, 662.327 776.685, 655.174 773.794 L 649.500 771.500 580 771.351 C 541.467 771.268, 508.068 771.612, 505.043 772.122 M 258.218 842.250 L 258.500 912.500 261.314 918.230 C 264.601 924.924, 269.337 929.164, 277 932.270 L 282.500 934.500 362.250 934.779 L 442 935.057 442 918.529 L 442 902 373.455 902 L 304.909 902 302.455 899.545 L 300 897.091 300 834.545 L 300 772 278.968 772 L 257.936 772 258.218 842.250 M 519.329 806.458 C 514.773 808.439, 514 810.660, 514 821.760 C 514 832.601, 514.920 834.510, 521.315 836.933 C 525.470 838.508, 624.358 838.287, 628.906 836.694 C 634.716 834.658, 636.236 831.494, 636.284 821.338 C 636.330 811.479, 635.363 808.756, 631.020 806.510 C 626.862 804.360, 524.262 804.312, 519.329 806.458 M 520.313 867.102 C 514.227 868.863, 513 871.818, 513 884.712 C 513 896.025, 513.033 896.187, 515.923 899.077 L 518.846 902 575 902 L 631.154 902 633.991 899.163 C 637.303 895.851, 638.443 890.293, 637.819 880.497 C 637.336 872.914, 635.054 869.110, 629.906 867.306 C 625.743 865.848, 525.296 865.661, 520.313 867.102" stroke="none" fill="#15202a" fill-rule="evenodd"/>
  </g>
  <g id="cyan" fill="#10bfd0">
<path d="M 793.818 364.248 C 794.314 384.956, 790.833 408.380, 784.486 427.043 C 783.138 431.005, 782.280 434.643, 782.579 435.127 C 782.878 435.611, 799.070 453.864, 818.561 475.688 C 851.785 512.888, 854 515.603, 854 519.117 C 854 522.712, 852.349 524.535, 813.613 563.702 L 773.226 604.539 771.496 613.020 C 770.545 617.684, 768.427 625.325, 766.790 630 C 763.863 638.358, 753.218 660.181, 751.750 660.833 C 751.337 661.017, 751 661.756, 751 662.476 C 751 663.197, 750.325 664.045, 749.500 664.362 C 748.675 664.678, 748 665.626, 748 666.469 C 748 667.311, 747.550 668, 747 668 C 746.450 668, 746 668.900, 746 670 C 746 671.129, 745.333 672, 744.469 672 C 743.626 672, 742.678 672.674, 742.362 673.499 C 741.620 675.434, 723.412 693.628, 721.474 694.372 C 720.663 694.683, 720 695.626, 720 696.469 C 720 697.356, 719.053 698.049, 717.750 698.116 C 715.723 698.220, 715.699 698.278, 717.500 698.700 C 719.955 699.275, 722 701.770, 722 704.191 C 722 705.735, 721.122 706, 716 706 C 710.958 706, 709.998 705.721, 709.985 704.250 C 709.975 703.195, 709.677 702.926, 709.235 703.573 C 708.831 704.163, 707.600 705.063, 706.500 705.573 C 705.161 706.194, 710.256 706.591, 721.926 706.774 C 731.620 706.927, 739.607 706.646, 739.926 706.140 C 740.242 705.641, 742.310 705.282, 744.523 705.343 C 748.764 705.460, 753 702.540, 753 699.500 C 753 697.342, 756.983 697.586, 757.070 699.750 C 757.130 701.226, 757.247 701.258, 757.820 699.954 C 758.420 698.589, 763.451 693.786, 774.973 683.577 C 786.483 673.378, 930.261 528.970, 931.496 526.368 C 933.482 522.181, 933.411 513.695, 931.355 509.719 C 930.450 507.969, 917.062 492.092, 901.605 474.436 C 886.147 456.780, 869.675 437.919, 865 432.522 C 860.325 427.126, 849.750 414.963, 841.500 405.494 C 833.250 396.025, 819.300 379.919, 810.500 369.702 C 801.700 359.486, 794.275 351.097, 794 351.062 C 793.725 351.026, 793.643 356.960, 793.818 364.248 M 924.643 444.115 C 930.579 450.778, 935.900 456.408, 936.469 456.626 C 937.037 456.845, 955.642 456.905, 977.813 456.762 L 1018.124 456.500 1008.571 445.290 C 1003.317 439.125, 998.144 433.612, 997.075 433.040 C 995.821 432.369, 980.717 432, 954.492 432 L 913.852 432 924.643 444.115 M 967.945 509.663 C 973.409 517.293, 973.325 520.019, 967.422 526.767 L 962.845 532 1005.082 532 L 1047.320 532 1053.160 526.160 C 1056.372 522.948, 1059 519.632, 1059 518.792 C 1059 517.951, 1056.696 514.279, 1053.880 510.632 L 1048.761 504 1006.325 504 L 963.890 504 967.945 509.663 M 932.461 578.545 C 930.790 579.370, 924.265 585.222, 917.961 591.550 L 906.500 603.054 948.627 602.777 L 990.755 602.500 1002.127 590.618 C 1008.382 584.082, 1013.650 578.345, 1013.833 577.868 C 1014.018 577.386, 996.658 577.010, 974.833 577.023 C 941.922 577.042, 935.004 577.290, 932.461 578.545 M 729.655 687.829 C 727.564 690.139, 727.532 692.606, 729.582 693.393 C 733.117 694.749, 734 694.071, 734 690 C 734 685.560, 732.422 684.771, 729.655 687.829 M 731.450 698.413 C 730.434 703.829, 731.582 706, 735.460 706 C 737.505 706, 739.009 705.418, 739.366 704.489 C 740.269 702.135, 738.904 697, 737.375 697 C 736.619 697, 736 696.550, 736 696 C 736 695.450, 735.120 695, 734.045 695 C 732.613 695, 731.920 695.911, 731.450 698.413" stroke="none" fill="#10bfd0" fill-rule="evenodd"/>
  </g>
</svg>
